<svg width="24" height="24" viewBox="0 0 24 24" fill="none" xmlns="http://www.w3.org/2000/svg">
<g id="octicon:location-16">
<path id="Vector" d="M18.894 17.394L13.5915 22.698C13.3825 22.9071 13.1344 23.0729 12.8614 23.1861C12.5883 23.2993 12.2956 23.3575 12 23.3575C11.7044 23.3575 11.4117 23.2993 11.1386 23.1861C10.8655 23.0729 10.6174 22.9071 10.4085 22.698L5.106 17.394C4.20057 16.4887 3.48232 15.4139 2.99226 14.2309C2.50221 13.048 2.24995 11.7802 2.24988 10.4998C2.24981 9.21938 2.50193 7.9515 2.99186 6.76853C3.48178 5.58556 4.19991 4.51068 5.10525 3.60525C6.01058 2.69982 7.08539 1.98157 8.2683 1.49152C9.45121 1.00146 10.7191 0.7492 11.9995 0.74913C13.2799 0.749061 14.5478 1.00119 15.7307 1.49111C16.9137 1.98104 17.9886 2.69917 18.894 3.6045C19.7995 4.50989 20.5178 5.58478 21.0079 6.76779C21.4979 7.9508 21.7502 9.21875 21.7502 10.4992C21.7502 11.7797 21.4979 13.0477 21.0079 14.2307C20.5178 15.4137 19.7995 16.4886 18.894 17.394ZM17.304 5.196C15.8973 3.78929 13.9894 2.99751 12 2.99751C10.0106 2.99751 8.10271 3.78779 6.696 5.1945C5.28929 6.60121 4.49901 8.50911 4.49901 10.4985C4.49901 12.4879 5.28929 14.3958 6.696 15.8025L12 21.105L17.304 15.804C18.0006 15.1075 18.5533 14.2807 18.9303 13.3706C19.3073 12.4605 19.5014 11.4851 19.5014 10.5C19.5014 9.51492 19.3073 8.53949 18.9303 7.62942C18.5533 6.71935 18.0006 5.89246 17.304 5.196ZM12 13.5C11.6005 13.509 11.2032 13.4382 10.8315 13.2915C10.4597 13.1449 10.121 12.9255 9.83524 12.6462C9.54946 12.3669 9.32236 12.0333 9.16729 11.665C9.01221 11.2967 8.93227 10.9011 8.93217 10.5015C8.93207 10.1019 9.01181 9.7063 9.1667 9.33793C9.3216 8.96956 9.54853 8.63585 9.83416 8.35639C10.1198 8.07692 10.4584 7.85735 10.8301 7.71054C11.2017 7.56374 11.599 7.49266 11.9985 7.5015C12.7823 7.51883 13.5282 7.84234 14.0766 8.40276C14.6249 8.96318 14.932 9.71598 14.9322 10.5C14.9324 11.284 14.6256 12.037 14.0776 12.5977C13.5296 13.1584 12.7838 13.4823 12 13.5Z" fill="#FDFDFC"/>
</g>
</svg>
